# xmcd
#
# Track frame offsets:
#	150
#	9719
#	24048
#	34212
#	43176
#	54267
#	72549
#	82558
#	109401
#	119866
#	132205
#	142257
#	155275
#	166197
#	179251
#	191791
#	204290
#	217769
#	233026
#	243163
#	256016
#	266380
#
# Disc length: 3767 seconds
#
# Revision: 0
# Processed by: cddbd v1.5.2PL0 Copyright (c) Steve Scherf et al.
# Submitted via: EasyCDDAExtractor 16.0.1.1
#
DISCID=280eb516
DTITLE=Tommy Collins - A Tommy Collins Country Souvenir -77+ New Patches -86
DYEAR=19
DGENRE=Country
TTITLE0=I Always Get A Souvenir
TTITLE1=A Hundred Years From Now
TTITLE2=High On A Hilltop
TTITLE3=You Gotta Have A Licence
TTITLE4=If You Ain't Lovin' (You Ain't Livin')
TTITLE5=The Two Sides Of Life
TTITLE6=You Better Not Do That
TTITLE7=They'll Never Take Her Love From Me+Mansion On The Hill+You're Cheatin
TTITLE7=' Heart+I Can't Help It
TTITLE8=Roots Of My Rising
TTITLE9=If That's The Fashion
TTITLE10=All Of The Monkeys Ain't In The Zoo
TTITLE11=New Patches
TTITLE12=Tilt Me A Little Toward Tillie
TTITLE13=Boxcar Children
TTITLE14=Shindig In The Barn
TTITLE15=Roots Of My Raising
TTITLE16=Hello Hag
TTITLE17=Someone Else Tends The Garden
TTITLE18=Lemonade Life
TTITLE19=I Love You More Than Anyone (I'll Never Have Again)
TTITLE20=If You Can't Bite  Don't Growl
TTITLE21=I Wish Things Were Simple Again
EXTD=
EXTT0=
EXTT1=
EXTT2=
EXTT3=
EXTT4=
EXTT5=
EXTT6=
EXTT7=
EXTT8=
EXTT9=
EXTT10=
EXTT11=
EXTT12=
EXTT13=
EXTT14=
EXTT15=
EXTT16=
EXTT17=
EXTT18=
EXTT19=
EXTT20=
EXTT21=
PLAYORDER=
